<svg width="24" height="24" viewBox="0 0 24 24" fill="none" xmlns="http://www.w3.org/2000/svg">
<path fill-rule="evenodd" clip-rule="evenodd" d="M12.7075 21.2704C13.9493 20.023 16.4989 17.4625 17.6569 16.3046C20.781 13.1804 20.781 8.11504 17.6569 4.99085C14.5327 1.86666 9.46734 1.86666 6.34315 4.99085C3.21895 8.11504 3.21895 13.1804 6.34315 16.3046C7.5011 17.4625 10.0507 20.023 11.2925 21.2704C11.6835 21.6631 12.3165 21.6631 12.7075 21.2704ZM12 13.3146C13.4728 13.3146 14.6667 12.1207 14.6667 10.648C14.6667 9.17522 13.4728 7.98132 12 7.98132C10.5272 7.98132 9.33333 9.17522 9.33333 10.648C9.33333 12.1207 10.5272 13.3146 12 13.3146Z" fill="#7D8AA3"/>
</svg>
