<svg width="122" height="60" viewBox="0 0 122 60" fill="none" xmlns="http://www.w3.org/2000/svg">
    <g clip-path="url(#clip0_4384_4448)">
        <rect width="122" height="60" rx="4" fill="white" />
        <path
            d="M85.82 30.74C85.82 31.1533 85.7133 31.4667 85.5 31.68C85.2867 31.8933 84.9733 32 84.56 32H84.52C84.1067 32 83.7933 31.8933 83.58 31.68C83.3667 31.4667 83.26 31.1533 83.26 30.74V18.1C83.26 17.6867 83.3667 17.3733 83.58 17.16C83.7933 16.9467 84.1067 16.84 84.52 16.84H84.56C84.9733 16.84 85.2867 16.9467 85.5 17.16C85.7133 17.3733 85.82 17.6867 85.82 18.1V30.74ZM92.5781 29.86C93.1648 29.86 93.6781 29.7267 94.1181 29.46C94.5581 29.1933 94.8915 28.82 95.1181 28.34C95.3581 27.86 95.4781 27.3133 95.4781 26.7C95.4781 26.0733 95.3581 25.5267 95.1181 25.06C94.8915 24.58 94.5581 24.2067 94.1181 23.94C93.6781 23.6733 93.1648 23.54 92.5781 23.54C91.9915 23.54 91.4781 23.6733 91.0381 23.94C90.5981 24.2067 90.2581 24.58 90.0181 25.06C89.7915 25.5267 89.6781 26.0733 89.6781 26.7C89.6781 27.3133 89.7981 27.86 90.0381 28.34C90.2781 28.82 90.6115 29.1933 91.0381 29.46C91.4781 29.7267 91.9915 29.86 92.5781 29.86ZM92.5781 32.22C91.5781 32.22 90.6515 31.9733 89.7981 31.48C88.9581 30.9733 88.2915 30.3 87.7981 29.46C87.3048 28.6067 87.0581 27.6867 87.0581 26.7C87.0581 25.7 87.3048 24.78 87.7981 23.94C88.3048 23.0867 88.9781 22.4133 89.8181 21.92C90.6715 21.4267 91.5915 21.18 92.5781 21.18C93.5781 21.18 94.4981 21.4267 95.3381 21.92C96.1915 22.4133 96.8648 23.0867 97.3581 23.94C97.8515 24.78 98.0981 25.7 98.0981 26.7C98.0981 27.6867 97.8515 28.6067 97.3581 29.46C96.8648 30.3 96.1915 30.9733 95.3381 31.48C94.4981 31.9733 93.5781 32.22 92.5781 32.22ZM106.371 22.66C106.371 22.2467 106.478 21.9333 106.691 21.72C106.904 21.5067 107.218 21.4 107.631 21.4H107.671C108.084 21.4 108.398 21.5067 108.611 21.72C108.824 21.9333 108.931 22.2467 108.931 22.66V26.76C108.931 27.8267 108.724 28.7733 108.311 29.6C107.898 30.4267 107.311 31.0733 106.551 31.54C105.804 31.9933 104.951 32.22 103.991 32.22C103.004 32.22 102.158 31.9867 101.451 31.52C100.744 31.0533 100.204 30.4067 99.8311 29.58C99.4578 28.7533 99.2711 27.8133 99.2711 26.76V22.66C99.2711 22.2467 99.3778 21.9333 99.5911 21.72C99.8044 21.5067 100.118 21.4 100.531 21.4H100.571C100.984 21.4 101.298 21.5067 101.511 21.72C101.724 21.9333 101.831 22.2467 101.831 22.66V26.76C101.831 27.48 101.904 28.06 102.051 28.5C102.198 28.9267 102.424 29.24 102.731 29.44C103.051 29.64 103.471 29.74 103.991 29.74C104.524 29.74 104.964 29.64 105.311 29.44C105.671 29.2267 105.938 28.9 106.111 28.46C106.284 28.02 106.371 27.4533 106.371 26.76V22.66ZM115.562 29.92C116.189 29.92 116.735 29.7867 117.202 29.52C117.669 29.2533 118.029 28.88 118.282 28.4C118.535 27.9067 118.662 27.34 118.662 26.7C118.662 26.06 118.535 25.4933 118.282 25C118.029 24.5067 117.669 24.1267 117.202 23.86C116.735 23.5933 116.189 23.46 115.562 23.46C115.069 23.46 114.609 23.6 114.182 23.88C113.769 24.1467 113.442 24.5267 113.202 25.02C112.962 25.5133 112.842 26.0733 112.842 26.7C112.842 27.3267 112.962 27.8867 113.202 28.38C113.442 28.86 113.769 29.24 114.182 29.52C114.595 29.7867 115.055 29.92 115.562 29.92ZM115.362 32.22C114.362 32.22 113.462 31.9733 112.662 31.48C111.862 30.9867 111.235 30.32 110.782 29.48C110.329 28.6267 110.102 27.7 110.102 26.7C110.102 25.7 110.329 24.78 110.782 23.94C111.235 23.0867 111.862 22.4133 112.662 21.92C113.462 21.4267 114.362 21.18 115.362 21.18C116.349 21.18 117.189 21.4667 117.882 22.04C118.589 22.6 119.115 23.3067 119.462 24.16C119.809 25.0133 119.982 25.86 119.982 26.7C119.982 27.54 119.809 28.3867 119.462 29.24C119.115 30.0933 118.589 30.8067 117.882 31.38C117.189 31.94 116.349 32.22 115.362 32.22ZM121.002 30.74C121.002 31.1533 120.895 31.4667 120.682 31.68C120.469 31.8933 120.155 32 119.742 32H119.702C119.289 32 118.975 31.8933 118.762 31.68C118.549 31.4667 118.442 31.1533 118.442 30.74V28.58L119.002 26.78L118.442 24.88V18.1C118.442 17.6867 118.549 17.3733 118.762 17.16C118.975 16.9467 119.289 16.84 119.702 16.84H119.742C120.155 16.84 120.469 16.9467 120.682 17.16C120.895 17.3733 121.002 17.6867 121.002 18.1V30.74Z"
            fill="#0C6DFF" />
        <path fill-rule="evenodd" clip-rule="evenodd"
            d="M64.7143 13C60.4115 13 57 16.3997 57 20.5C57 23.349 58.647 25.8597 61.0956 27.1268C61.494 25.3376 63.0908 24 65 24H66C66 21.2386 68.2386 19 71 19C73.7614 19 76 21.2386 76 24H77C79.2091 24 81 25.7909 81 28C81 30.2091 79.2091 32 77 32H65C64.9439 32 64.8881 31.9988 64.8326 31.9966C64.7934 31.9988 64.754 32 64.7143 32C58.287 32 53 26.8931 53 20.5C53 14.1069 58.287 9 64.7143 9C67.5908 9 70.2345 10.0205 72.278 11.7182C73.1276 12.424 73.2442 13.6849 72.5384 14.5346C71.8326 15.3842 70.5716 15.5008 69.722 14.795C68.3771 13.6777 66.632 13 64.7143 13Z"
            fill="url(#paint0_linear_4384_4448)" />
        <path
            d="M3.2 30.68C3.2 31.1067 3.08667 31.4333 2.86 31.66C2.63333 31.8867 2.30667 32 1.88 32H1.84C1.41333 32 1.08667 31.8867 0.86 31.66C0.633333 31.4333 0.52 31.1067 0.52 30.68V18.5C0.52 18.0733 0.633333 17.7467 0.86 17.52C1.08667 17.2933 1.41333 17.18 1.84 17.18H1.88C2.30667 17.18 2.63333 17.2933 2.86 17.52C3.08667 17.7467 3.2 18.0733 3.2 18.5V30.68ZM12.44 30.68C12.44 31.1067 12.3267 31.4333 12.1 31.66C11.8733 31.8867 11.5467 32 11.12 32H11.08C10.6533 32 10.3267 31.8867 10.1 31.66C9.87333 31.4333 9.76 31.1067 9.76 30.68V18.5C9.76 18.0733 9.87333 17.7467 10.1 17.52C10.3267 17.2933 10.6533 17.18 11.08 17.18H11.12C11.5467 17.18 11.8733 17.2933 12.1 17.52C12.3267 17.7467 12.44 18.0733 12.44 18.5V30.68ZM11.12 25.66H1.9V23.06H11.12V25.66ZM16.8809 18.14C16.8809 18.5533 16.7743 18.8667 16.5609 19.08C16.3476 19.2933 16.0343 19.4 15.6209 19.4H15.5809C15.1676 19.4 14.8543 19.2933 14.6409 19.08C14.4276 18.8667 14.3209 18.5533 14.3209 18.14V18.1C14.3209 17.6867 14.4276 17.3733 14.6409 17.16C14.8543 16.9467 15.1676 16.84 15.5809 16.84H15.6209C16.0343 16.84 16.3476 16.9467 16.5609 17.16C16.7743 17.3733 16.8809 17.6867 16.8809 18.1V18.14ZM16.8809 30.74C16.8809 31.1533 16.7743 31.4667 16.5609 31.68C16.3476 31.8933 16.0343 32 15.6209 32H15.5809C15.1676 32 14.8543 31.8933 14.6409 31.68C14.4276 31.4667 14.3209 31.1533 14.3209 30.74V22.66C14.3209 22.2467 14.4276 21.9333 14.6409 21.72C14.8543 21.5067 15.1676 21.4 15.5809 21.4H15.6209C16.0343 21.4 16.3476 21.5067 16.5609 21.72C16.7743 21.9333 16.8809 22.2467 16.8809 22.66V30.74ZM23.3791 32.22C22.3791 32.22 21.4791 31.9733 20.6791 31.48C19.8791 30.9867 19.2524 30.32 18.7991 29.48C18.3457 28.6267 18.1191 27.7 18.1191 26.7C18.1191 25.7 18.3457 24.78 18.7991 23.94C19.2524 23.0867 19.8791 22.4133 20.6791 21.92C21.4791 21.4267 22.3791 21.18 23.3791 21.18C24.3657 21.18 25.2057 21.4667 25.8991 22.04C26.6057 22.6 27.1324 23.3067 27.4791 24.16C27.8257 25.0133 27.9991 25.86 27.9991 26.7C27.9991 27.54 27.8257 28.3867 27.4791 29.24C27.1324 30.0933 26.6057 30.8067 25.8991 31.38C25.2057 31.94 24.3657 32.22 23.3791 32.22ZM23.5791 29.92C24.2057 29.92 24.7524 29.7867 25.2191 29.52C25.6857 29.2533 26.0457 28.88 26.2991 28.4C26.5524 27.9067 26.6791 27.34 26.6791 26.7C26.6791 26.06 26.5524 25.4933 26.2991 25C26.0457 24.5067 25.6857 24.1267 25.2191 23.86C24.7524 23.5933 24.2057 23.46 23.5791 23.46C23.0857 23.46 22.6257 23.6 22.1991 23.88C21.7857 24.1467 21.4591 24.5267 21.2191 25.02C20.9791 25.5133 20.8591 26.0733 20.8591 26.7C20.8591 27.3267 20.9791 27.8867 21.2191 28.38C21.4591 28.86 21.7857 29.24 22.1991 29.52C22.6124 29.7867 23.0724 29.92 23.5791 29.92ZM18.8391 34.8C18.5324 34.5067 18.3991 34.2067 18.4391 33.9C18.4791 33.5933 18.6657 33.32 18.9991 33.08L19.0591 33.04C19.3791 32.8133 19.6724 32.72 19.9391 32.76C20.2191 32.8133 20.5124 32.9733 20.8191 33.24C21.1391 33.52 21.4991 33.7267 21.8991 33.86C22.3124 34.0067 22.7991 34.08 23.3591 34.08C23.9857 34.08 24.5324 33.9533 24.9991 33.7C25.4657 33.4467 25.8257 33.0667 26.0791 32.56C26.3324 32.0667 26.4591 31.4667 26.4591 30.76V28.42L26.8591 26.68L26.4591 24.8V22.66C26.4591 22.2467 26.5657 21.9333 26.7791 21.72C26.9924 21.5067 27.3057 21.4 27.7191 21.4H27.7591C28.1724 21.4 28.4857 21.5067 28.6991 21.72C28.9124 21.9333 29.0191 22.2467 29.0191 22.66V30.76C29.0191 31.8667 28.7657 32.86 28.2591 33.74C27.7524 34.62 27.0657 35.3067 26.1991 35.8C25.3324 36.3067 24.3857 36.56 23.3591 36.56C22.4257 36.56 21.5791 36.4 20.8191 36.08C20.0724 35.7733 19.4124 35.3467 18.8391 34.8ZM40.8673 25.46C40.9873 26.0467 40.8807 26.5133 40.5473 26.86C40.2273 27.1933 39.7607 27.36 39.1473 27.36H38.6873C38.6873 26.4533 38.5607 25.7133 38.3073 25.14C38.0673 24.5533 37.7273 24.1333 37.2873 23.88C36.8607 23.6133 36.354 23.48 35.7673 23.48C35.0873 23.48 34.514 23.6067 34.0473 23.86C33.594 24.1 33.2473 24.46 33.0073 24.94C32.7673 25.42 32.6473 26 32.6473 26.68C32.6473 27.3867 32.7673 27.98 33.0073 28.46C33.2473 28.94 33.614 29.3067 34.1073 29.56C34.6007 29.8 35.2207 29.92 35.9673 29.92C36.314 29.92 36.6473 29.86 36.9673 29.74C37.2873 29.6067 37.5807 29.42 37.8473 29.18C38.154 28.9267 38.434 28.78 38.6873 28.74C38.954 28.7 39.234 28.78 39.5273 28.98L39.5873 29.02C39.934 29.26 40.1273 29.5333 40.1673 29.84C40.2073 30.1333 40.0807 30.42 39.7873 30.7C39.2407 31.18 38.634 31.5533 37.9673 31.82C37.314 32.0867 36.6473 32.22 35.9673 32.22C34.8073 32.22 33.794 31.98 32.9273 31.5C32.0607 31.02 31.3873 30.36 30.9073 29.52C30.4407 28.68 30.2073 27.7333 30.2073 26.68C30.2073 25.6267 30.4407 24.6867 30.9073 23.86C31.3873 23.02 32.0473 22.3667 32.8873 21.9C33.7407 21.42 34.7007 21.18 35.7673 21.18C36.5673 21.18 37.314 21.34 38.0073 21.66C38.714 21.98 39.3207 22.46 39.8273 23.1C40.334 23.74 40.6807 24.5267 40.8673 25.46ZM38.9873 27.36H31.8673V25.28H38.9873V27.36ZM44.6483 30.74C44.6483 31.1533 44.5416 31.4667 44.3283 31.68C44.1149 31.8933 43.8016 32 43.3883 32H43.3483C42.9349 32 42.6216 31.8933 42.4083 31.68C42.1949 31.4667 42.0883 31.1533 42.0883 30.74V22.66C42.0883 22.2467 42.1949 21.9333 42.4083 21.72C42.6216 21.5067 42.9349 21.4 43.3483 21.4H43.3883C43.8016 21.4 44.1149 21.5067 44.3283 21.72C44.5416 21.9333 44.6483 22.2467 44.6483 22.66V30.74ZM42.0883 28.72C42.0883 27.3867 42.3349 26.14 42.8283 24.98C43.3216 23.82 44.0016 22.9 44.8683 22.22C45.7349 21.5267 46.7016 21.18 47.7683 21.18C48.4483 21.18 49.0816 21.3733 49.6683 21.76C50.2683 22.1467 50.7483 22.7133 51.1083 23.46C51.4816 24.1933 51.6683 25.0533 51.6683 26.04V30.74C51.6683 31.1533 51.5616 31.4667 51.3483 31.68C51.1349 31.8933 50.8216 32 50.4083 32H50.3683C49.9549 32 49.6416 31.8933 49.4283 31.68C49.2149 31.4667 49.1083 31.1533 49.1083 30.74V26.04C49.1083 25.4933 49.0083 25.0467 48.8083 24.7C48.6083 24.34 48.3549 24.08 48.0483 23.92C47.7416 23.7467 47.4216 23.66 47.0883 23.66C46.6083 23.66 46.1883 23.76 45.8283 23.96C45.4683 24.16 45.1816 24.5 44.9683 24.98C44.7549 25.46 44.6483 26.1067 44.6483 26.92L42.0883 28.72Z"
            fill="#0C6DFF" />
        <path
            d="M30.774 36.786C30.998 36.898 31.1287 37.052 31.166 37.248C31.2033 37.4347 31.1473 37.64 30.998 37.864C30.5407 38.5267 30.0273 39.18 29.458 39.824C28.8887 40.468 28.31 41.0513 27.722 41.574C27.5167 41.7513 27.3207 41.8353 27.134 41.826C26.9567 41.8167 26.7887 41.7093 26.63 41.504L26.588 41.448C26.4293 41.2427 26.3547 41.0513 26.364 40.874C26.3733 40.6873 26.476 40.51 26.672 40.342C27.316 39.7727 27.8993 39.1847 28.422 38.578C28.954 37.962 29.3553 37.4347 29.626 36.996C29.7567 36.7813 29.9107 36.66 30.088 36.632C30.2653 36.5947 30.4753 36.6367 30.718 36.758L30.774 36.786ZM29.108 39.936C29.64 39.936 29.906 40.202 29.906 40.734V43.408C29.906 43.94 29.64 44.206 29.108 44.206H29.052C28.52 44.206 28.254 43.94 28.254 43.408V40.734C28.254 40.202 28.52 39.936 29.052 39.936H29.108ZM37.788 38.046C38.264 37.8033 38.6187 37.9107 38.852 38.368L38.88 38.424C39.1227 38.8907 39.0107 39.236 38.544 39.46C37.4333 40.02 36.29 40.524 35.114 40.972C33.938 41.42 32.874 41.77 31.922 42.022C31.418 42.162 31.1007 41.98 30.97 41.476L30.942 41.42C30.8767 41.168 30.8907 40.9627 30.984 40.804C31.0773 40.636 31.25 40.5193 31.502 40.454C33.742 39.8193 35.8373 39.0167 37.788 38.046ZM33.994 36.674C34.526 36.674 34.792 36.94 34.792 37.472V42.106H37.886V42.022C37.886 41.49 38.152 41.224 38.684 41.224H38.74C39.272 41.224 39.538 41.49 39.538 42.022V42.26C39.538 42.736 39.412 43.1 39.16 43.352C38.9173 43.604 38.5533 43.73 38.068 43.73H34.61C34.134 43.73 33.77 43.6087 33.518 43.366C33.266 43.114 33.14 42.7453 33.14 42.26V37.472C33.14 36.94 33.406 36.674 33.938 36.674H33.994ZM33.028 44.206C33.588 44.206 33.868 44.486 33.868 45.046V48.7C33.868 49.26 33.588 49.54 33.028 49.54H32.972C32.412 49.54 32.132 49.26 32.132 48.7V45.046C32.132 44.486 32.412 44.206 32.972 44.206H33.028ZM38.628 45.466C39.16 45.466 39.426 45.732 39.426 46.264V46.32C39.426 46.852 39.16 47.118 38.628 47.118H27.372C26.84 47.118 26.574 46.852 26.574 46.32V46.264C26.574 45.732 26.84 45.466 27.372 45.466H38.628ZM41.638 45.004C41.638 44.0427 42.1187 43.562 43.08 43.562H50.92C51.8813 43.562 52.362 44.0427 52.362 45.004V47.93C52.362 48.8913 51.8813 49.372 50.92 49.372H43.08C42.1187 49.372 41.638 48.8913 41.638 47.93V45.004ZM50.682 45.074H43.318V47.86H50.682V45.074ZM50.822 45.732C51.2887 45.732 51.522 45.9653 51.522 46.432V46.488C51.522 46.9547 51.2887 47.188 50.822 47.188H43.178C42.7113 47.188 42.478 46.9547 42.478 46.488V46.432C42.478 45.9653 42.7113 45.732 43.178 45.732H50.822ZM44.214 37.808C44.7553 37.808 45.012 38.074 44.984 38.606C44.8813 39.6887 44.5733 40.6407 44.06 41.462C43.556 42.2833 42.8513 42.9367 41.946 43.422C41.7127 43.5433 41.5073 43.5667 41.33 43.492C41.162 43.4173 41.0267 43.2587 40.924 43.016L40.896 42.96C40.7093 42.484 40.854 42.12 41.33 41.868C41.9647 41.5133 42.4407 41.056 42.758 40.496C43.0753 39.936 43.2667 39.306 43.332 38.606C43.36 38.074 43.6353 37.808 44.158 37.808H44.214ZM46.594 39.544C47.07 39.544 47.308 39.782 47.308 40.258V40.314C47.308 40.79 47.07 41.028 46.594 41.028H41.288C40.812 41.028 40.574 40.79 40.574 40.314V40.258C40.574 39.782 40.812 39.544 41.288 39.544H46.594ZM44.746 40.202C44.998 40.1367 45.208 40.146 45.376 40.23C45.5533 40.314 45.7027 40.482 45.824 40.734C45.9547 40.9487 46.118 41.1587 46.314 41.364C46.5193 41.56 46.7107 41.728 46.888 41.868C47.3547 42.12 47.4853 42.484 47.28 42.96L47.252 43.016C47.0373 43.5107 46.692 43.632 46.216 43.38C45.6747 43.0627 45.2127 42.694 44.83 42.274C44.4567 41.8447 44.242 41.4853 44.186 41.196C43.99 40.692 44.158 40.37 44.69 40.23L44.746 40.202ZM41.806 36.604C42.3473 36.604 42.618 36.758 42.618 37.066H46.482C46.958 37.066 47.196 37.304 47.196 37.78V37.836C47.196 38.312 46.958 38.55 46.482 38.55H42.366C41.8993 38.55 41.5447 38.4333 41.302 38.2C41.0593 37.9573 40.938 37.598 40.938 37.122V37.066C40.938 36.758 41.2087 36.604 41.75 36.604H41.806ZM47.812 38.48C47.812 37.4907 48.3067 36.996 49.296 36.996H51.522C52.5113 36.996 53.006 37.4907 53.006 38.48V41.294C53.006 42.2833 52.5113 42.778 51.522 42.778H49.296C48.3067 42.778 47.812 42.2833 47.812 41.294V38.48ZM51.354 38.648H49.464V41.126H51.354V38.648ZM56.142 37.416C56.6833 37.416 56.954 37.6867 56.954 38.228V38.69H66.054C66.5953 38.69 66.866 38.9607 66.866 39.502V39.558C66.866 40.0993 66.5953 40.37 66.054 40.37H56.786C56.2913 40.37 55.9133 40.244 55.652 39.992C55.4 39.74 55.274 39.362 55.274 38.858V38.228C55.274 37.6867 55.5447 37.416 56.086 37.416H56.142ZM65.55 42.974C66.0913 42.974 66.362 43.2447 66.362 43.786V43.842C66.362 44.3833 66.0913 44.654 65.55 44.654H56.45C55.9087 44.654 55.638 44.3833 55.638 43.842V43.786C55.638 43.2447 55.9087 42.974 56.45 42.974H65.55ZM66.502 47.566C67.0433 47.566 67.314 47.8367 67.314 48.378V48.434C67.314 48.9753 67.0433 49.246 66.502 49.246H55.498C54.9567 49.246 54.686 48.9753 54.686 48.434V48.378C54.686 47.8367 54.9567 47.566 55.498 47.566H66.502ZM61.098 36.646C61.6487 36.646 61.924 36.9213 61.924 37.472V47.636C61.924 48.1867 61.6487 48.462 61.098 48.462H61.042C60.4913 48.462 60.216 48.1867 60.216 47.636V37.472C60.216 36.9213 60.4913 36.646 61.042 36.646H61.098ZM72.774 46.166C72.774 45.2047 73.2547 44.724 74.216 44.724H79.564C80.5253 44.724 81.006 45.2047 81.006 46.166V47.972C81.006 48.9333 80.5253 49.414 79.564 49.414H74.216C73.2547 49.414 72.774 48.9333 72.774 47.972V46.166ZM79.326 46.236H74.454V47.902H79.326V46.236ZM70.814 41.588C71.3553 41.588 71.626 41.8587 71.626 42.4V48.742C71.626 49.2833 71.3553 49.554 70.814 49.554H70.758C70.2167 49.554 69.946 49.2833 69.946 48.742V42.4C69.946 41.8587 70.2167 41.588 70.758 41.588H70.814ZM71.85 36.8C72.1113 36.9213 72.284 37.0567 72.368 37.206C72.452 37.3553 72.452 37.556 72.368 37.808C71.584 40.1227 70.6787 42.2367 69.652 44.15C69.5027 44.4393 69.3253 44.6027 69.12 44.64C68.9147 44.668 68.742 44.5653 68.602 44.332L68.56 44.262C68.252 43.758 68.238 43.2353 68.518 42.694C69.358 41.042 70.1093 39.2453 70.772 37.304C70.856 37.0333 70.9867 36.8513 71.164 36.758C71.3507 36.6553 71.5607 36.66 71.794 36.772L71.85 36.8ZM80.096 42.442C80.5813 42.442 80.824 42.6847 80.824 43.17V43.226C80.824 43.7113 80.5813 43.954 80.096 43.954H73.698C73.2127 43.954 72.97 43.7113 72.97 43.226V43.17C72.97 42.6847 73.2127 42.442 73.698 42.442H80.096ZM80.096 40.16C80.5813 40.16 80.824 40.4027 80.824 40.888V40.944C80.824 41.4293 80.5813 41.672 80.096 41.672H73.698C73.2127 41.672 72.97 41.4293 72.97 40.944V40.888C72.97 40.4027 73.2127 40.16 73.698 40.16H80.096ZM80.768 37.822C81.272 37.822 81.524 38.074 81.524 38.578V38.634C81.524 39.138 81.272 39.39 80.768 39.39H73.026C72.522 39.39 72.27 39.138 72.27 38.634V38.578C72.27 38.074 72.522 37.822 73.026 37.822H80.768ZM76.932 36.604C77.4733 36.604 77.744 36.8747 77.744 37.416L77.73 37.794C77.73 38.3353 77.4593 38.606 76.918 38.606H76.862C76.3207 38.606 76.05 38.3353 76.05 37.794L76.064 37.416C76.064 36.8747 76.3347 36.604 76.876 36.604H76.932ZM93.34 37.192C93.8813 37.192 94.152 37.4627 94.152 38.004V38.06C94.152 38.6013 93.8813 38.872 93.34 38.872H84.38C83.8387 38.872 83.568 38.6013 83.568 38.06V38.004C83.568 37.4627 83.8387 37.192 84.38 37.192H93.34ZM94.418 41.49C94.9593 41.49 95.23 41.7607 95.23 42.302V42.358C95.23 42.8993 94.9593 43.17 94.418 43.17H83.582C83.0407 43.17 82.77 42.8993 82.77 42.358V42.302C82.77 41.7607 83.0407 41.49 83.582 41.49H94.418ZM88.65 42.302C89.0887 42.6287 89.1447 43.0113 88.818 43.45L85.864 47.426H92.724V46.572C92.724 46.0213 92.9993 45.746 93.55 45.746H93.606C94.1567 45.746 94.432 46.0213 94.432 46.572V47.58C94.432 48.5973 93.9233 49.106 92.906 49.106H84.94C84.4827 49.106 84.1327 49.022 83.89 48.854C83.6473 48.686 83.5307 48.448 83.54 48.14C83.5587 47.832 83.7173 47.482 84.016 47.09L87.446 42.442C87.7727 42.0033 88.1553 41.9473 88.594 42.274L88.65 42.302Z"
            fill="#181D28" />
    </g>
    <defs>
        <linearGradient id="paint0_linear_4384_4448" x1="71" y1="13.5" x2="62" y2="32" gradientUnits="userSpaceOnUse">
            <stop stop-color="#4AC9FF" />
            <stop offset="1" stop-color="#0C6DFF" />
        </linearGradient>
        <clipPath id="clip0_4384_4448">
            <rect width="122" height="60" rx="4" fill="white" />
        </clipPath>
    </defs>
</svg>