<svg width="24" height="24" viewBox="0 0 24 24" fill="none" xmlns="http://www.w3.org/2000/svg">
<path d="M3.46255 17.8664C2.68151 17.0853 2.6815 15.819 3.46255 15.0379L4.46833 14.0322C5.12382 13.3767 6.14384 13.2575 6.93276 13.7443L7.57481 14.1405C7.78211 14.2684 8.02942 14.3157 8.2603 14.238C8.86211 14.0356 10.1515 13.4599 11.6806 11.9309C13.2097 10.4018 13.7853 9.11239 13.9877 8.51058C14.0654 8.2797 14.0181 8.03239 13.8902 7.82509L13.494 7.18304C13.0072 6.39412 13.1264 5.3741 13.7819 4.71861L14.7877 3.71283C15.5687 2.93178 16.835 2.93178 17.6161 3.71283L18.2393 4.33603C19.7774 5.87419 20.1459 8.23468 18.9437 10.0475C17.9162 11.597 16.5173 13.4829 14.875 15.1253C13.2326 16.7676 11.3468 18.1664 9.79727 19.194C7.9844 20.3962 5.62391 20.0277 4.08576 18.4896L3.46255 17.8664Z" fill="#7D8AA3"/>
</svg>
